<svg width="15" height="12" viewBox="0 0 15 12" fill="none" xmlns="http://www.w3.org/2000/svg">
<path d="M7.55625 0C2.8125 0 0 5.625 0 5.625C0 5.625 2.8125 11.25 7.55625 11.25C12.1875 11.25 15 5.625 15 5.625C15 5.625 12.1875 0 7.55625 0ZM7.5 1.875C9.58125 1.875 11.25 3.5625 11.25 5.625C11.25 7.70625 9.58125 9.375 7.5 9.375C5.4375 9.375 3.75 7.70625 3.75 5.625C3.75 3.5625 5.4375 1.875 7.5 1.875ZM7.5 3.75C6.46875 3.75 5.625 4.59375 5.625 5.625C5.625 6.65625 6.46875 7.5 7.5 7.5C8.53125 7.5 9.375 6.65625 9.375 5.625C9.375 5.4375 9.3 5.26875 9.2625 5.1C9.1125 5.4 8.8125 5.625 8.4375 5.625C7.9125 5.625 7.5 5.2125 7.5 4.6875C7.5 4.3125 7.725 4.0125 8.025 3.8625C7.85625 3.80625 7.6875 3.75 7.5 3.75Z" fill="#0437D0"/>
</svg>
